<svg xmlns="http://www.w3.org/2000/svg" width="200" height="120" viewBox="0 0 200 120"><g><path fill="#6B7280" stroke="#000" stroke-width="2" d="M-25,-15 C-35,-15 -40,-5 -40,5 C-40,15 -35,25 -25,25 L25,25 C35,25 40,15 40,5 C40,-5 35,-15 25,-15 Z" transform="translate(100, 35)"/><path fill="#4A5568" stroke="#000" stroke-width="2" d="M-25,-15 C-15,-10 -5,-15 5,-10 C15,-15 25,-15 25,-15 C25,-5 15,0 5,5 C-5,0 -15,-5 -25,-15 Z" transform="translate(100, 35)"/><path fill="#4A5568" stroke="#000" stroke-width="2" d="M-5,25 L5,25 L3,35 L-3,35 Z" transform="translate(100, 35)"/><path fill="none" stroke="#000" stroke-width="1.5" d="M-20,-5 C-10,0 0,-5 10,0 C20,-5 20,5 10,10 C0,5 -10,10 -20,5 C-20,-5 -20,-5 -20,-5" transform="translate(100, 35)"/></g><text x="100" y="85" fill="#4A5568" font-family="Arial, sans-serif" font-size="18" font-weight="bold" letter-spacing="2" text-anchor="middle">INTROVERTS</text></svg>