<svg xmlns="http://www.w3.org/2000/svg" width="120" height="120" fill="none" viewBox="0 0 120 120"><defs><linearGradient id="brain-gradient" x1="0%" x2="100%" y1="0%" y2="100%"><stop offset="0%" style="stop-color:#1e3a8a;stop-opacity:1"/><stop offset="50%" style="stop-color:#3b82f6;stop-opacity:1"/><stop offset="100%" style="stop-color:#60a5fa;stop-opacity:1"/></linearGradient><filter id="glow"><feGaussianBlur result="coloredBlur" stdDeviation="2"/><feMerge><feMergeNode in="coloredBlur"/><feMergeNode in="SourceGraphic"/></feMerge></filter></defs><g filter="url(#glow)" transform="translate(60, 60)"><path fill="url(#brain-gradient)" stroke="#1e3a8a" stroke-width="2" d="M -25 -15 Q -30 -25, -20 -30 Q -10 -35, 0 -32 Q 10 -35, 20 -30 Q 30 -25, 25 -15 Q 28 -5, 25 5 Q 30 15, 20 22 Q 10 28, 0 26 Q -10 28, -20 22 Q -30 15, -25 5 Q -28 -5, -25 -15 Z"/><circle cx="-15" cy="-10" r="3" fill="#60a5fa" opacity=".8"/><circle cx="15" cy="-10" r="3" fill="#60a5fa" opacity=".8"/><circle cx="-12" cy="8" r="3" fill="#60a5fa" opacity=".8"/><circle cx="12" cy="8" r="3" fill="#60a5fa" opacity=".8"/><circle cx="0" cy="-5" r="3" fill="#60a5fa" opacity=".8"/><line x1="-15" x2="0" y1="-10" y2="-5" stroke="#93c5fd" stroke-width="1.5" opacity=".6"/><line x1="15" x2="0" y1="-10" y2="-5" stroke="#93c5fd" stroke-width="1.5" opacity=".6"/><line x1="0" x2="-12" y1="-5" y2="8" stroke="#93c5fd" stroke-width="1.5" opacity=".6"/><line x1="0" x2="12" y1="-5" y2="8" stroke="#93c5fd" stroke-width="1.5" opacity=".6"/><path fill="#1e3a8a" stroke="#1e3a8a" stroke-width="1" d="M -5 18 L 0 28 L 5 18 Z"/></g><circle cx="60" cy="60" r="55" fill="none" stroke="url(#brain-gradient)" stroke-width="3" opacity=".3"/></svg>