<svg xmlns="http://www.w3.org/2000/svg" width="128" height="128" fill="none" viewBox="0 0 128 128"><defs><linearGradient id="iconBrainGradientDark" x1="0%" x2="100%" y1="0%" y2="100%"><stop offset="0%" style="stop-color:#a78bfa"/><stop offset="50%" style="stop-color:#ec4899"/><stop offset="100%" style="stop-color:#f59e0b"/></linearGradient><linearGradient id="iconAccentGradientDark" x1="0%" x2="100%" y1="0%" y2="100%"><stop offset="0%" style="stop-color:#06b6d4"/><stop offset="100%" style="stop-color:#3b82f6"/></linearGradient><filter id="iconGlowDark" width="200%" height="200%" x="-50%" y="-50%"><feGaussianBlur result="coloredBlur" stdDeviation="3"/><feMerge><feMergeNode in="coloredBlur"/><feMergeNode in="SourceGraphic"/></feMerge></filter></defs><g filter="url(#iconGlowDark)"><path fill="url(#iconBrainGradientDark)" stroke="#e5e7eb" stroke-width="1.5" d="M20 35 C20 25 25 20 35 20 C40 20 45 22 50 25 C52 27 54 29 56 31 C56 35 56 40 56 45 C56 55 56 65 56 75 C56 85 56 95 56 105 C54 107 52 109 50 111 C45 114 40 116 35 116 C25 116 20 111 20 101 C20 96 22 91 26 87 C22 83 20 78 20 73 C20 68 22 63 26 59 C22 55 20 50 20 45 C20 42 20 38 20 35 Z"/><path fill="url(#iconBrainGradientDark)" stroke="#e5e7eb" stroke-width="1.5" d="M108 35 C108 25 103 20 93 20 C88 20 83 22 78 25 C76 27 74 29 72 31 C72 35 72 40 72 45 C72 55 72 65 72 75 C72 85 72 95 72 105 C74 107 76 109 78 111 C83 114 88 116 93 116 C103 116 108 111 108 101 C108 96 106 91 102 87 C106 83 108 78 108 73 C108 68 106 63 102 59 C106 55 108 50 108 45 C108 42 108 38 108 35 Z"/><ellipse cx="64" cy="68" fill="url(#iconAccentGradientDark)" opacity=".8" rx="8" ry="35"/><rect width="8" height="12" x="60" y="116" fill="url(#iconAccentGradientDark)" stroke="#e5e7eb" stroke-width="1" rx="4"/></g><g opacity=".7"><path fill="none" stroke="url(#iconAccentGradientDark)" stroke-linecap="round" stroke-width="1.5" d="M28 50 C35 48 42 50 48 48"/><path fill="none" stroke="url(#iconAccentGradientDark)" stroke-linecap="round" stroke-width="1.5" d="M28 65 C35 63 42 65 48 63"/><path fill="none" stroke="url(#iconAccentGradientDark)" stroke-linecap="round" stroke-width="1.5" d="M28 80 C35 78 42 80 48 78"/><path fill="none" stroke="url(#iconAccentGradientDark)" stroke-linecap="round" stroke-width="1.5" d="M100 50 C93 48 86 50 80 48"/><path fill="none" stroke="url(#iconAccentGradientDark)" stroke-linecap="round" stroke-width="1.5" d="M100 65 C93 63 86 65 80 63"/><path fill="none" stroke="url(#iconAccentGradientDark)" stroke-linecap="round" stroke-width="1.5" d="M100 80 C93 78 86 80 80 78"/></g><line x1="64" x2="64" y1="31" y2="116" stroke="url(#iconAccentGradientDark)" stroke-width="1" opacity=".6"/><ellipse cx="42" cy="40" fill="#fff" opacity=".2" rx="6" ry="4"/><ellipse cx="86" cy="40" fill="#fff" opacity=".2" rx="6" ry="4"/></svg>