<svg xmlns="http://www.w3.org/2000/svg" width="280" height="64" fill="none" viewBox="0 0 280 64"><defs><linearGradient id="bookGradientFull" x1="0%" x2="100%" y1="0%" y2="100%"><stop offset="0%" style="stop-color:#1e3a8a;stop-opacity:.1"/><stop offset="100%" style="stop-color:#1e3a8a;stop-opacity:.05"/></linearGradient><linearGradient id="penGradientFull" x1="0%" x2="100%" y1="0%" y2="100%"><stop offset="0%" style="stop-color:#374151"/><stop offset="50%" style="stop-color:#1e3a8a"/><stop offset="100%" style="stop-color:#0f172a"/></linearGradient><linearGradient id="textGradientFull" x1="0%" x2="100%" y1="0%" y2="0%"><stop offset="0%" style="stop-color:#1e3a8a"/><stop offset="100%" style="stop-color:#374151"/></linearGradient></defs><g id="icon"><rect width="32" height="44" x="10" y="10" fill="#1e3a8a" opacity=".08" rx="3"/><rect width="32" height="44" x="8" y="8" fill="#faf7f0" stroke="#1e3a8a" stroke-width="1.5" rx="3"/><rect width="28" height="40" x="10" y="10" fill="url(#bookGradientFull)" rx="2"/><line x1="8" x2="8" y1="12" y2="48" stroke="#1e3a8a" stroke-linecap="round" stroke-width="2"/><circle cx="8" cy="18" r="1" fill="#1e3a8a" opacity=".6"/><circle cx="8" cy="26" r="1" fill="#1e3a8a" opacity=".6"/><circle cx="8" cy="34" r="1" fill="#1e3a8a" opacity=".6"/><circle cx="8" cy="42" r="1" fill="#1e3a8a" opacity=".6"/><line x1="12" x2="36" y1="16" y2="16" stroke="#1e3a8a" stroke-width=".5" opacity=".3"/><line x1="12" x2="34" y1="20" y2="20" stroke="#1e3a8a" stroke-width=".5" opacity=".3"/><line x1="12" x2="36" y1="24" y2="24" stroke="#1e3a8a" stroke-width=".5" opacity=".3"/><line x1="12" x2="32" y1="28" y2="28" stroke="#1e3a8a" stroke-width=".5" opacity=".3"/><g transform="translate(42, 20)"><ellipse cx="6" cy="16" fill="url(#penGradientFull)" rx="2.5" ry="16" transform="rotate(25)"/><path fill="#374151" d="M0 8 L4 20 L2 22 L-2 20 Z" transform="rotate(25)"/><path fill="#1e3a8a" d="M0 8 L4 20 L2 22 L0 20 Z" transform="rotate(25)"/><circle cx="1" cy="21" r=".8" fill="#fef08a" transform="rotate(25)"/><path fill="none" stroke="#1e3a8a" stroke-width="1" d="M1 22 Q3 26 5 30" opacity=".4" transform="rotate(25)"/></g><rect width="4" height="44" x="8" y="8" fill="#fff" opacity=".1" rx="3"/></g><g transform="translate(70, 8)"><text x="0" y="32" fill="url(#textGradientFull)" font-family="Dancing Script, cursive" font-size="28" font-weight="600" letter-spacing=".5">Introvirght</text><path fill="none" stroke="#1e3a8a" stroke-width="1" d="M0 38 Q90 36 180 38" opacity=".3"/><circle cx="-4" cy="24" r="1.5" fill="#1e3a8a" opacity=".4"/><circle cx="184" cy="24" r="1.5" fill="#1e3a8a" opacity=".4"/></g></svg>