<svg xmlns="http://www.w3.org/2000/svg" width="64" height="64" fill="none" viewBox="0 0 64 64"><defs><linearGradient id="brainGradientDark" x1="0%" x2="100%" y1="0%" y2="100%"><stop offset="0%" style="stop-color:#9ca3af"/><stop offset="50%" style="stop-color:#6b7280"/><stop offset="100%" style="stop-color:#4b5563"/></linearGradient><linearGradient id="brainSectionGradientDark" x1="0%" x2="100%" y1="0%" y2="100%"><stop offset="0%" style="stop-color:#6b7280"/><stop offset="100%" style="stop-color:#4b5563"/></linearGradient></defs><ellipse cx="33" cy="33" fill="#000" opacity=".2" rx="24" ry="18"/><path fill="url(#brainGradientDark)" stroke="#D1D5DB" stroke-width="1.5" d="M8,32 C8,20 16,12 28,12 L36,12 C48,12 56,20 56,32 C56,44 48,52 36,52 L28,52 C16,52 8,44 8,32 Z"/><path fill="url(#brainSectionGradientDark)" stroke="#D1D5DB" stroke-width="1" d="M8,32 C8,20 16,12 28,12 C32,16 32,24 32,32 C32,40 32,48 28,52 C16,52 8,44 8,32 Z"/><path fill="#9CA3AF" stroke="#D1D5DB" stroke-width="1" d="M32,32 C32,20 36,12 36,12 C48,12 56,20 56,32 C56,44 48,52 36,52 C36,48 32,40 32,32 Z"/><rect width="4" height="8" x="30" y="52" fill="#6B7280" stroke="#D1D5DB" stroke-width="1" rx="2"/><path fill="none" stroke="#D1D5DB" stroke-width="1" d="M12,28 C20,24 24,28 32,24" opacity=".8"/><path fill="none" stroke="#D1D5DB" stroke-width="1" d="M32,24 C40,28 44,24 52,28" opacity=".8"/><path fill="none" stroke="#D1D5DB" stroke-width="1" d="M16,36 C24,32 28,36 32,32" opacity=".8"/><path fill="none" stroke="#D1D5DB" stroke-width="1" d="M32,32 C36,36 40,32 48,36" opacity=".8"/><line x1="32" x2="32" y1="12" y2="52" stroke="#D1D5DB" stroke-width="1.5" opacity=".9"/><ellipse cx="22" cy="24" fill="#fff" opacity=".2" rx="3" ry="2"/><ellipse cx="42" cy="24" fill="#fff" opacity=".2" rx="3" ry="2"/></svg>