<svg xmlns="http://www.w3.org/2000/svg" width="280" height="64" fill="none" viewBox="0 0 280 64"><defs><linearGradient id="bookGradientFullDark" x1="0%" x2="100%" y1="0%" y2="100%"><stop offset="0%" style="stop-color:#cbd5e1;stop-opacity:.15"/><stop offset="100%" style="stop-color:#cbd5e1;stop-opacity:.08"/></linearGradient><linearGradient id="penGradientFullDark" x1="0%" x2="100%" y1="0%" y2="100%"><stop offset="0%" style="stop-color:#9ca3af"/><stop offset="50%" style="stop-color:#cbd5e1"/><stop offset="100%" style="stop-color:#e5e7eb"/></linearGradient><linearGradient id="textGradientFullDark" x1="0%" x2="100%" y1="0%" y2="0%"><stop offset="0%" style="stop-color:#cbd5e1"/><stop offset="100%" style="stop-color:#9ca3af"/></linearGradient></defs><g id="icon"><rect width="32" height="44" x="10" y="10" fill="#000" opacity=".2" rx="3"/><rect width="32" height="44" x="8" y="8" fill="#1f2937" stroke="#cbd5e1" stroke-width="1.5" rx="3"/><rect width="28" height="40" x="10" y="10" fill="url(#bookGradientFullDark)" rx="2"/><line x1="8" x2="8" y1="12" y2="48" stroke="#cbd5e1" stroke-linecap="round" stroke-width="2"/><circle cx="8" cy="18" r="1" fill="#cbd5e1" opacity=".8"/><circle cx="8" cy="26" r="1" fill="#cbd5e1" opacity=".8"/><circle cx="8" cy="34" r="1" fill="#cbd5e1" opacity=".8"/><circle cx="8" cy="42" r="1" fill="#cbd5e1" opacity=".8"/><line x1="12" x2="36" y1="16" y2="16" stroke="#cbd5e1" stroke-width=".5" opacity=".4"/><line x1="12" x2="34" y1="20" y2="20" stroke="#cbd5e1" stroke-width=".5" opacity=".4"/><line x1="12" x2="36" y1="24" y2="24" stroke="#cbd5e1" stroke-width=".5" opacity=".4"/><line x1="12" x2="32" y1="28" y2="28" stroke="#cbd5e1" stroke-width=".5" opacity=".4"/><g transform="translate(42, 20)"><ellipse cx="6" cy="16" fill="url(#penGradientFullDark)" rx="2.5" ry="16" transform="rotate(25)"/><path fill="#9ca3af" d="M0 8 L4 20 L2 22 L-2 20 Z" transform="rotate(25)"/><path fill="#cbd5e1" d="M0 8 L4 20 L2 22 L0 20 Z" transform="rotate(25)"/><circle cx="1" cy="21" r=".8" fill="#fef08a" transform="rotate(25)"/><path fill="none" stroke="#cbd5e1" stroke-width="1" d="M1 22 Q3 26 5 30" opacity=".6" transform="rotate(25)"/></g><rect width="4" height="44" x="8" y="8" fill="#fff" opacity=".05" rx="3"/></g><g transform="translate(70, 8)"><text x="0" y="32" fill="url(#textGradientFullDark)" font-family="Dancing Script, cursive" font-size="28" font-weight="600" letter-spacing=".5">Introvirght</text><path fill="none" stroke="#cbd5e1" stroke-width="1" d="M0 38 Q90 36 180 38" opacity=".4"/><circle cx="-4" cy="24" r="1.5" fill="#cbd5e1" opacity=".6"/><circle cx="184" cy="24" r="1.5" fill="#cbd5e1" opacity=".6"/></g></svg>